<svg xmlns="http://www.w3.org/2000/svg" width="383.959" height="383.959"
    viewBox="0 0 383.959 383.959">
    <g id="Grupo_6" data-name="Grupo 6" transform="translate(700.479 728.979)">
        <rect id="Retângulo_5" data-name="Retângulo 5" width="272" height="271" rx="18"
            transform="translate(-316.521 -537.354) rotate(135)" fill="#09f" />
        <circle id="Elipse_5" data-name="Elipse 5" cx="112.5" cy="112.5" r="112.5"
            transform="translate(-621 -649)" fill="#fff" />
        <g id="Grupo_5" data-name="Grupo 5" transform="translate(15 1)">
            <text id="T" transform="translate(-601 -486)" fill="#09f" stroke="#09f" stroke-width="1"
                font-size="172" font-family="PMingLiU-ExtB">
                <tspan x="0" y="0">T</tspan>
            </text>
            <path id="Icon_metro-tools" data-name="Icon metro-tools"
                d="M76.288,17.192a18.778,18.778,0,0,1-3.913,20.161,17.763,17.763,0,0,1-21.661,2.963l-4.991,5.568,3.561,3.652,2.128-2.174a2.74,2.74,0,0,1,3.938,0l17.257,17.81a2.885,2.885,0,0,1,0,4.023l-7.877,8.047a2.74,2.74,0,0,1-3.938,0L43.536,59.433a2.885,2.885,0,0,1,0-4.023l1.944-1.986-3.394-3.476L18.221,76.584a5.485,5.485,0,0,1-7.877,0L8.375,74.573a5.775,5.775,0,0,1,0-8.047L35.563,43.263l-18.057-18.5-5.7,0L5.2,13.922l5.312-5.435,10.853,6.786.071,5.7L39.705,39.712l5.314-4.545A18.748,18.748,0,0,1,46.768,11.2,17.83,17.83,0,0,1,66.417,7.154l-11.7,11.789L64.564,29,76.288,17.192ZM14.906,69.364a2.745,2.745,0,0,0-3.938,0,2.888,2.888,0,0,0,0,4.026,2.745,2.745,0,0,0,3.938,0A2.888,2.888,0,0,0,14.906,69.364Z"
                transform="translate(-524.67 -552.252)" fill="#09f" stroke="#09f" stroke-width="1" />
        </g>
    </g>
</svg>
  